<svg xmlns="http://www.w3.org/2000/svg" width="75" height="85" viewBox="0 0 75 85">
    <g fill="none" fill-rule="evenodd">
        <path fill="#CEDDFF" d="M3.869 39.735h67.03v44.686H3.869z"/>
        <path fill="#3A77FF" d="M25.656 52.425c4.164-.003 7.583 3.4 7.638 7.6l.317 24.28-15.075.012-.317-24.28c-.055-4.2 3.275-7.608 7.437-7.612zM63.52 54.393a7.458 7.458 0 0 1-7.402 7.512 7.457 7.457 0 0 1-7.506-7.407 7.458 7.458 0 0 1 7.402-7.511 7.457 7.457 0 0 1 7.506 7.406"/>
        <path fill="#002F34" d="M35.283.674L38.445.66 74.17 36.003l-1.546 3.837-70.794.338-1.616-3.821L35.283.674z"/>
    </g>
</svg>
