<svg xmlns="http://www.w3.org/2000/svg" xmlns:xlink="http://www.w3.org/1999/xlink" width="109" height="88" viewBox="0 0 109 88">
    <defs>
        <path id="a" d="M0 10.95C0 17 4.926 21.902 11.003 21.902c6.078 0 11.004-4.902 11.004-10.95C22.007 4.902 17.081 0 11.003 0 4.926 0 0 4.902 0 10.95zm7.702 0a3.297 3.297 0 0 1 3.301-3.285 3.297 3.297 0 0 1 3.302 3.286 3.297 3.297 0 0 1-3.302 3.285 3.297 3.297 0 0 1-3.3-3.285z"/>
        <path id="c" d="M0 0v3.033l7.712 7.674h3.047V7.675L3.047 0z"/>
        <path id="e" d="M7.712 0L0 7.675v3.032h3.047l7.712-7.674V0z"/>
        <path id="g" d="M16.454 7.759C8.729 7.617 3.316 1.689 3.26 1.629L1.633 3.101l1.632-1.467L0 4.57c.268.3 6.673 7.389 16.317 7.593.144.003.287.004.43.004 6.417 0 12.627-3.058 18.464-9.095L32.071 0c-5.07 5.246-10.331 7.848-15.617 7.759z"/>
    </defs>
    <g fill="none" fill-rule="evenodd">
        <path fill="#EBF1FF" d="M93.996 44.215c0 21.723-17.695 39.333-39.522 39.333-21.828 0-39.523-17.61-39.523-39.333 0-21.724 17.695-39.333 39.523-39.333 21.827 0 39.522 17.61 39.522 39.333"/>
        <path fill="#9CBBFF" d="M21.083 44.215h-10.43c0-24.047 19.658-43.61 43.82-43.61 13.147 0 25.484 5.798 33.847 15.908l-8.052 6.598c-6.375-7.707-15.776-12.127-25.794-12.127-18.412 0-33.391 14.907-33.391 33.23"/>
        <path fill="#3A77FF" d="M54.474 87.825c-13.838 0-27.017-6.618-35.253-17.703l8.386-6.172c6.278 8.45 16.322 13.495 26.867 13.495 18.411 0 33.39-14.907 33.39-33.23h10.43c0 24.046-19.658 43.61-43.82 43.61"/>
        <path fill="#9CBBFF" d="M15.868 59.96l-7.594-9.985L.679 39.99H31.058l-7.595 9.985z"/>
        <path fill="#3A77FF" d="M93.08 28.653l7.594 9.985 7.594 9.985H77.89l7.595-9.985z"/>
        <g transform="translate(32.467 25.72)">
            <mask id="b" fill="#fff">
                <use xlink:href="#a"/>
            </mask>
            <path fill="#002F34" d="M-2.445 24.335h26.897V-2.433H-2.445z" mask="url(#b)"/>
        </g>
        <g transform="translate(61.81 30.1)">
            <mask id="d" fill="#fff">
                <use xlink:href="#c"/>
            </mask>
            <path fill="#002F34" d="M-2.445 13.14h15.65V-2.432h-15.65z" mask="url(#d)"/>
        </g>
        <g transform="translate(61.81 30.1)">
            <mask id="f" fill="#fff">
                <use xlink:href="#e"/>
            </mask>
            <path fill="#002F34" d="M-2.445 13.14h15.65V-2.432h-15.65z" mask="url(#f)"/>
        </g>
        <g transform="translate(38.335 53.949)">
            <mask id="h" fill="#fff">
                <use xlink:href="#g"/>
            </mask>
            <path fill="#002F34" d="M-2.445 14.6h40.101V-2.432H-2.445z" mask="url(#h)"/>
        </g>
    </g>
</svg>
