<svg xmlns="http://www.w3.org/2000/svg" width="130" height="130" viewBox="0 0 130 130">
    <g fill="none" fill-rule="evenodd">
        <path fill="#3A77FF" d="M90.025 95.648c-10.513 0-15.41-5.02-15.66-5.285l1.104-1.048c.07.075 7.31 7.414 23.054 3.781 10.738-2.478 14.629-11.514 12.923-19.159-1.516-6.791-7.559-12.668-17.641-10.497-7.248 1.564-12.842.095-15.755-4.135-3.04-4.414-2.614-11.412 1.034-17.016 4.032-6.192 10.785-9.07 18.068-7.695l-.283 1.496c-6.656-1.256-12.825 1.373-16.508 7.029-3.322 5.102-3.757 11.403-1.057 15.323 2.54 3.687 7.576 4.934 14.18 3.51 5-1.078 9.534-.364 13.115 2.063 3.185 2.159 5.434 5.565 6.333 9.59 1.87 8.378-2.362 18.273-14.067 20.975-3.298.761-6.242 1.068-8.84 1.068"/>
        <path fill="#C7DCFF" d="M10.46 25.073l48.492 4.354L77.97 92.582 14.814 73.564z"/>
        <path fill="#002F34" d="M84.61 93.791l.891 5.24.891 5.24-4.983-1.848-4.984-1.849 4.093-3.39z"/>
        <path fill="#002F34" d="M84.274 94.699l-.891-5.24-.891-5.24 4.984 1.848 4.982 1.849-4.092 3.391zM106.01 89.266l4.674 2.53 4.673 2.532-4.528 2.782-4.53 2.782-.144-5.313z"/>
        <path fill="#002F34" d="M106.517 90.09l-4.674-2.531-4.674-2.531 4.53-2.782 4.528-2.782.145 5.313zM108.369 67.566l2.921-4.44 2.922-4.44 2.384 4.75 2.384 4.75-5.306-.31z"/>
        <path fill="#002F34" d="M109.233 67.132l-2.922 4.44-2.921 4.44-2.384-4.75-2.385-4.75 5.306.31zM90.384 63.242l-1.125-5.194-1.125-5.195 5.061 1.624 5.062 1.622-3.937 3.572z"/>
        <path fill="#002F34" d="M90.68 62.32l1.124 5.195 1.125 5.195-5.061-1.623-5.061-1.623 3.936-3.572zM77.882 44.4l5.094-1.515 5.095-1.516-1.235 5.17-1.235 5.17-3.86-3.655z"/>
        <path fill="#002F34" d="M78.823 44.625l-5.095 1.515-5.094 1.516 1.235-5.17 1.234-5.169 3.86 3.654z"/>
        <path fill="#3A77FF" d="M42.946 27.906l3.09 55.06-31-9.388-4.568-48.717z"/>
    </g>
</svg>
